<mxfile host="app.diagrams.net" agent="Mozilla/5.0 (Windows NT 10.0; Win64; x64) AppleWebKit/537.36 (KHTML, like Gecko) Chrome/133.0.0.0 Safari/537.36 OPR/118.0.0.0" version="27.1.1">
  <diagram name="PÃ¡gina-1" id="h2BzFxtRrWWAbb5xEjfa">
    <mxGraphModel dx="2732" dy="886" grid="1" gridSize="10" guides="1" tooltips="1" connect="0" arrows="1" fold="1" page="1" pageScale="1" pageWidth="827" pageHeight="1169" math="0" shadow="0">
      <root>
        <mxCell id="0" />
        <mxCell id="1" parent="0" />
        <mxCell id="0-FlhMrsH-Pd4GE7u94M-95" value="" style="rounded=1;whiteSpace=wrap;html=1;strokeColor=none;fillColor=#BAC8D3;fontSize=24;fontColor=#23445D;align=center;opacity=60;" vertex="1" parent="1">
          <mxGeometry x="-10" y="240" width="640" height="670" as="geometry" />
        </mxCell>
        <mxCell id="0-FlhMrsH-Pd4GE7u94M-93" value="" style="rounded=1;whiteSpace=wrap;html=1;strokeColor=none;fillColor=#BAC8D3;fontSize=24;fontColor=#23445D;align=center;opacity=60;" vertex="1" parent="1">
          <mxGeometry x="830" y="230" width="810" height="820" as="geometry" />
        </mxCell>
        <mxCell id="0-FlhMrsH-Pd4GE7u94M-90" value="" style="rounded=1;whiteSpace=wrap;html=1;strokeColor=none;fillColor=light-dark(#BAC8D3,#9AD5AE);fontSize=24;fontColor=#23445D;align=center;opacity=60;" vertex="1" parent="1">
          <mxGeometry x="1050.85" y="285" width="130" height="145" as="geometry" />
        </mxCell>
        <mxCell id="0-FlhMrsH-Pd4GE7u94M-89" value="" style="rounded=1;whiteSpace=wrap;html=1;strokeColor=none;fillColor=light-dark(#BAC8D3,#D7A3A3);fontSize=24;fontColor=#23445D;align=center;opacity=60;" vertex="1" parent="1">
          <mxGeometry x="1059.15" y="880" width="500" height="130" as="geometry" />
        </mxCell>
        <mxCell id="0-FlhMrsH-Pd4GE7u94M-88" value="" style="rounded=1;whiteSpace=wrap;html=1;strokeColor=none;fillColor=light-dark(#BAC8D3,#A587C9);fontSize=24;fontColor=#23445D;align=center;opacity=60;" vertex="1" parent="1">
          <mxGeometry x="1425" y="710" width="130" height="145" as="geometry" />
        </mxCell>
        <mxCell id="0-FlhMrsH-Pd4GE7u94M-87" value="" style="rounded=1;whiteSpace=wrap;html=1;strokeColor=none;fillColor=light-dark(#BAC8D3,#89BBE1);fontSize=24;fontColor=#23445D;align=center;opacity=60;" vertex="1" parent="1">
          <mxGeometry x="1425" y="500" width="130" height="145" as="geometry" />
        </mxCell>
        <mxCell id="0-FlhMrsH-Pd4GE7u94M-86" value="" style="rounded=1;whiteSpace=wrap;html=1;strokeColor=none;fillColor=light-dark(#BAC8D3,#CFC87D);fontSize=24;fontColor=#23445D;align=center;opacity=60;" vertex="1" parent="1">
          <mxGeometry x="1425" y="300" width="130" height="145" as="geometry" />
        </mxCell>
        <mxCell id="0-FlhMrsH-Pd4GE7u94M-85" value="" style="rounded=1;whiteSpace=wrap;html=1;strokeColor=none;fillColor=light-dark(#BAC8D3,#CFC87D);fontSize=24;fontColor=#23445D;align=center;opacity=60;" vertex="1" parent="1">
          <mxGeometry x="40" y="290" width="130" height="145" as="geometry" />
        </mxCell>
        <mxCell id="0-FlhMrsH-Pd4GE7u94M-84" value="" style="rounded=1;whiteSpace=wrap;html=1;strokeColor=none;fillColor=light-dark(#BAC8D3,#89BBE1);fontSize=24;fontColor=#23445D;align=center;opacity=60;" vertex="1" parent="1">
          <mxGeometry x="40" y="490" width="130" height="145" as="geometry" />
        </mxCell>
        <mxCell id="0-FlhMrsH-Pd4GE7u94M-83" value="" style="rounded=1;whiteSpace=wrap;html=1;strokeColor=none;fillColor=light-dark(#BAC8D3,#D7A3A3);fontSize=24;fontColor=#23445D;align=center;opacity=60;" vertex="1" parent="1">
          <mxGeometry x="45" y="730" width="410" height="150" as="geometry" />
        </mxCell>
        <mxCell id="0-FlhMrsH-Pd4GE7u94M-2" value="" style="image;html=1;image=img/lib/clip_art/networking/Router_128x128.png" vertex="1" parent="1">
          <mxGeometry x="840" y="770" width="80" height="80" as="geometry" />
        </mxCell>
        <mxCell id="0-FlhMrsH-Pd4GE7u94M-3" value="" style="image;html=1;image=img/lib/clip_art/networking/Router_128x128.png" vertex="1" parent="1">
          <mxGeometry x="830" y="360" width="80" height="80" as="geometry" />
        </mxCell>
        <mxCell id="0-FlhMrsH-Pd4GE7u94M-4" value="" style="image;html=1;image=img/lib/clip_art/networking/Router_128x128.png" vertex="1" parent="1">
          <mxGeometry x="555" y="535" width="80" height="80" as="geometry" />
        </mxCell>
        <mxCell id="0-FlhMrsH-Pd4GE7u94M-5" value="" style="image;html=1;image=img/lib/clip_art/networking/Switch_128x128.png" vertex="1" parent="1">
          <mxGeometry x="1080" y="545" width="80" height="80" as="geometry" />
        </mxCell>
        <mxCell id="0-FlhMrsH-Pd4GE7u94M-6" value="" style="image;html=1;image=img/lib/clip_art/networking/Switch_128x128.png" vertex="1" parent="1">
          <mxGeometry x="335" y="535" width="80" height="80" as="geometry" />
        </mxCell>
        <mxCell id="0-FlhMrsH-Pd4GE7u94M-7" value="" style="image;points=[];aspect=fixed;html=1;align=center;shadow=0;dashed=0;image=img/lib/allied_telesis/wireless/Access_Point_Indoor.svg;" vertex="1" parent="1">
          <mxGeometry x="356.7" y="775" width="36.6" height="54.6" as="geometry" />
        </mxCell>
        <mxCell id="0-FlhMrsH-Pd4GE7u94M-8" value="" style="image;points=[];aspect=fixed;html=1;align=center;shadow=0;dashed=0;image=img/lib/allied_telesis/wireless/Access_Point_Indoor.svg;" vertex="1" parent="1">
          <mxGeometry x="1106.7" y="920.4000000000001" width="36.6" height="54.6" as="geometry" />
        </mxCell>
        <mxCell id="0-FlhMrsH-Pd4GE7u94M-10" value="" style="image;html=1;image=img/lib/clip_art/computers/Server_128x128.png" vertex="1" parent="1">
          <mxGeometry x="1070" y="340" width="80" height="80" as="geometry" />
        </mxCell>
        <mxCell id="0-FlhMrsH-Pd4GE7u94M-12" value="" style="image;html=1;image=img/lib/clip_art/computers/Workstation_128x128.png" vertex="1" parent="1">
          <mxGeometry x="1440" y="350" width="80" height="80" as="geometry" />
        </mxCell>
        <mxCell id="0-FlhMrsH-Pd4GE7u94M-13" value="" style="image;html=1;image=img/lib/clip_art/computers/Workstation_128x128.png" vertex="1" parent="1">
          <mxGeometry x="1450" y="545" width="80" height="80" as="geometry" />
        </mxCell>
        <mxCell id="0-FlhMrsH-Pd4GE7u94M-14" value="" style="image;html=1;image=img/lib/clip_art/computers/Workstation_128x128.png" vertex="1" parent="1">
          <mxGeometry x="1450" y="750" width="80" height="80" as="geometry" />
        </mxCell>
        <mxCell id="0-FlhMrsH-Pd4GE7u94M-15" value="" style="image;html=1;image=img/lib/clip_art/computers/Netbook_128x128.png" vertex="1" parent="1">
          <mxGeometry x="1450" y="917.5" width="80" height="80" as="geometry" />
        </mxCell>
        <mxCell id="0-FlhMrsH-Pd4GE7u94M-16" value="" style="image;html=1;image=img/lib/clip_art/computers/Netbook_128x128.png" vertex="1" parent="1">
          <mxGeometry x="65" y="760" width="80" height="80" as="geometry" />
        </mxCell>
        <mxCell id="0-FlhMrsH-Pd4GE7u94M-17" value="" style="image;html=1;image=img/lib/clip_art/computers/Workstation_128x128.png" vertex="1" parent="1">
          <mxGeometry x="55" y="535" width="80" height="80" as="geometry" />
        </mxCell>
        <mxCell id="0-FlhMrsH-Pd4GE7u94M-18" value="" style="image;html=1;image=img/lib/clip_art/computers/Workstation_128x128.png" vertex="1" parent="1">
          <mxGeometry x="55" y="330" width="80" height="80" as="geometry" />
        </mxCell>
        <mxCell id="0-FlhMrsH-Pd4GE7u94M-28" value="" style="edgeStyle=elbowEdgeStyle;elbow=horizontal;endArrow=none;html=1;strokeColor=#23445D;endFill=0;strokeWidth=4;rounded=1;entryX=0.975;entryY=0.488;entryDx=0;entryDy=0;entryPerimeter=0;" edge="1" parent="1">
          <mxGeometry width="100" height="100" relative="1" as="geometry">
            <mxPoint x="325.3" y="575" as="sourcePoint" />
            <mxPoint x="135" y="575.04" as="targetPoint" />
          </mxGeometry>
        </mxCell>
        <mxCell id="0-FlhMrsH-Pd4GE7u94M-29" value="" style="edgeStyle=elbowEdgeStyle;elbow=horizontal;endArrow=none;html=1;strokeColor=#23445D;endFill=0;strokeWidth=4;rounded=1;entryX=0.975;entryY=0.488;entryDx=0;entryDy=0;entryPerimeter=0;" edge="1" parent="1">
          <mxGeometry width="100" height="100" relative="1" as="geometry">
            <mxPoint x="555" y="574" as="sourcePoint" />
            <mxPoint x="415" y="574" as="targetPoint" />
          </mxGeometry>
        </mxCell>
        <mxCell id="0-FlhMrsH-Pd4GE7u94M-37" style="edgeStyle=orthogonalEdgeStyle;rounded=1;html=1;strokeColor=#23445D;endArrow=none;endFill=0;strokeWidth=4;exitX=0.988;exitY=0.663;exitDx=0;exitDy=0;exitPerimeter=0;" edge="1" parent="1">
          <mxGeometry relative="1" as="geometry">
            <Array as="points">
              <mxPoint x="135" y="385" />
              <mxPoint x="226" y="385" />
              <mxPoint x="226" y="575" />
            </Array>
            <mxPoint x="135.03999999999996" y="388.03999999999996" as="sourcePoint" />
            <mxPoint x="326" y="575" as="targetPoint" />
          </mxGeometry>
        </mxCell>
        <mxCell id="0-FlhMrsH-Pd4GE7u94M-39" value="" style="sketch=0;aspect=fixed;pointerEvents=1;shadow=0;dashed=0;html=1;strokeColor=none;labelPosition=center;verticalLabelPosition=bottom;verticalAlign=top;align=center;fillColor=#00188D;shape=mxgraph.mscae.enterprise.wireless_connection;rotation=-180;" vertex="1" parent="1">
          <mxGeometry x="305" y="779.5999999999999" width="42" height="50" as="geometry" />
        </mxCell>
        <mxCell id="0-FlhMrsH-Pd4GE7u94M-40" style="rounded=1;html=1;strokeColor=#23445D;endArrow=none;endFill=0;strokeWidth=4;exitX=0.513;exitY=0.963;exitDx=0;exitDy=0;exitPerimeter=0;entryX=0.527;entryY=0.018;entryDx=0;entryDy=0;entryPerimeter=0;" edge="1" parent="1" source="0-FlhMrsH-Pd4GE7u94M-6" target="0-FlhMrsH-Pd4GE7u94M-7">
          <mxGeometry relative="1" as="geometry">
            <mxPoint x="374.5" y="640" as="sourcePoint" />
            <mxPoint x="374.5" y="706" as="targetPoint" />
          </mxGeometry>
        </mxCell>
        <mxCell id="0-FlhMrsH-Pd4GE7u94M-42" style="edgeStyle=none;rounded=1;html=1;strokeColor=#23445D;endArrow=none;endFill=0;strokeWidth=4;entryX=1;entryY=0.325;entryDx=0;entryDy=0;entryPerimeter=0;exitX=0.013;exitY=0.688;exitDx=0;exitDy=0;exitPerimeter=0;" edge="1" parent="1" source="0-FlhMrsH-Pd4GE7u94M-3" target="0-FlhMrsH-Pd4GE7u94M-4">
          <mxGeometry relative="1" as="geometry">
            <mxPoint x="780" y="420" as="sourcePoint" />
            <mxPoint x="600" y="557" as="targetPoint" />
          </mxGeometry>
        </mxCell>
        <mxCell id="0-FlhMrsH-Pd4GE7u94M-43" style="edgeStyle=none;rounded=1;html=1;strokeColor=#23445D;endArrow=none;endFill=0;strokeWidth=4;exitX=-0.025;exitY=0.438;exitDx=0;exitDy=0;exitPerimeter=0;entryX=1;entryY=0.713;entryDx=0;entryDy=0;entryPerimeter=0;" edge="1" parent="1" source="0-FlhMrsH-Pd4GE7u94M-2" target="0-FlhMrsH-Pd4GE7u94M-4">
          <mxGeometry relative="1" as="geometry">
            <mxPoint x="790" y="662.6" as="sourcePoint" />
            <mxPoint x="610" y="839.6" as="targetPoint" />
          </mxGeometry>
        </mxCell>
        <mxCell id="0-FlhMrsH-Pd4GE7u94M-44" style="edgeStyle=none;rounded=1;html=1;strokeColor=#23445D;endArrow=none;endFill=0;strokeWidth=4;exitX=1.013;exitY=0.4;exitDx=0;exitDy=0;exitPerimeter=0;entryX=0.038;entryY=0.888;entryDx=0;entryDy=0;entryPerimeter=0;" edge="1" parent="1" source="0-FlhMrsH-Pd4GE7u94M-2" target="0-FlhMrsH-Pd4GE7u94M-5">
          <mxGeometry relative="1" as="geometry">
            <mxPoint x="1038" y="703" as="sourcePoint" />
            <mxPoint x="850" y="500" as="targetPoint" />
          </mxGeometry>
        </mxCell>
        <mxCell id="0-FlhMrsH-Pd4GE7u94M-45" style="edgeStyle=none;rounded=1;html=1;strokeColor=#23445D;endArrow=none;endFill=0;strokeWidth=4;exitX=1.013;exitY=0.55;exitDx=0;exitDy=0;exitPerimeter=0;entryX=-0.012;entryY=0.125;entryDx=0;entryDy=0;entryPerimeter=0;" edge="1" parent="1" source="0-FlhMrsH-Pd4GE7u94M-3" target="0-FlhMrsH-Pd4GE7u94M-5">
          <mxGeometry relative="1" as="geometry">
            <mxPoint x="900" y="716" as="sourcePoint" />
            <mxPoint x="1062" y="530" as="targetPoint" />
          </mxGeometry>
        </mxCell>
        <mxCell id="0-FlhMrsH-Pd4GE7u94M-46" style="rounded=1;html=1;strokeColor=#23445D;endArrow=none;endFill=0;strokeWidth=4;entryX=0.463;entryY=-0.012;entryDx=0;entryDy=0;entryPerimeter=0;exitX=0.575;exitY=0.963;exitDx=0;exitDy=0;exitPerimeter=0;" edge="1" parent="1" source="0-FlhMrsH-Pd4GE7u94M-10" target="0-FlhMrsH-Pd4GE7u94M-5">
          <mxGeometry relative="1" as="geometry">
            <mxPoint x="1230" y="430" as="sourcePoint" />
            <mxPoint x="1230" y="550" as="targetPoint" />
          </mxGeometry>
        </mxCell>
        <mxCell id="0-FlhMrsH-Pd4GE7u94M-47" style="rounded=1;html=1;strokeColor=#23445D;endArrow=none;endFill=0;strokeWidth=4;exitX=0.575;exitY=0.963;exitDx=0;exitDy=0;exitPerimeter=0;entryX=0.452;entryY=0.034;entryDx=0;entryDy=0;entryPerimeter=0;" edge="1" parent="1" target="0-FlhMrsH-Pd4GE7u94M-8">
          <mxGeometry relative="1" as="geometry">
            <mxPoint x="1119.5" y="623" as="sourcePoint" />
            <mxPoint x="1121" y="780" as="targetPoint" />
          </mxGeometry>
        </mxCell>
        <mxCell id="0-FlhMrsH-Pd4GE7u94M-48" value="" style="sketch=0;aspect=fixed;pointerEvents=1;shadow=0;dashed=0;html=1;strokeColor=none;labelPosition=center;verticalLabelPosition=bottom;verticalAlign=top;align=center;fillColor=#00188D;shape=mxgraph.mscae.enterprise.wireless_connection" vertex="1" parent="1">
          <mxGeometry x="145" y="779.6" width="42" height="50" as="geometry" />
        </mxCell>
        <mxCell id="0-FlhMrsH-Pd4GE7u94M-49" value="" style="sketch=0;aspect=fixed;pointerEvents=1;shadow=0;dashed=0;html=1;strokeColor=none;labelPosition=center;verticalLabelPosition=bottom;verticalAlign=top;align=center;fillColor=#00188D;shape=mxgraph.mscae.enterprise.wireless_connection;rotation=-180;" vertex="1" parent="1">
          <mxGeometry x="1394.87" y="930.6400000000001" width="45.13" height="53.72" as="geometry" />
        </mxCell>
        <mxCell id="0-FlhMrsH-Pd4GE7u94M-50" value="" style="sketch=0;aspect=fixed;pointerEvents=1;shadow=0;dashed=0;html=1;strokeColor=none;labelPosition=center;verticalLabelPosition=bottom;verticalAlign=top;align=center;fillColor=#00188D;shape=mxgraph.mscae.enterprise.wireless_connection;rotation=0;" vertex="1" parent="1">
          <mxGeometry x="1160" y="925" width="42" height="50" as="geometry" />
        </mxCell>
        <mxCell id="0-FlhMrsH-Pd4GE7u94M-51" style="edgeStyle=orthogonalEdgeStyle;rounded=1;html=1;strokeColor=#23445D;endArrow=none;endFill=0;strokeWidth=4;exitX=-0.012;exitY=0.513;exitDx=0;exitDy=0;exitPerimeter=0;" edge="1" parent="1" source="0-FlhMrsH-Pd4GE7u94M-12">
          <mxGeometry relative="1" as="geometry">
            <Array as="points">
              <mxPoint x="1280" y="391" />
              <mxPoint x="1280" y="580" />
            </Array>
            <mxPoint x="1280" y="380" as="sourcePoint" />
            <mxPoint x="1240" y="580" as="targetPoint" />
          </mxGeometry>
        </mxCell>
        <mxCell id="0-FlhMrsH-Pd4GE7u94M-54" style="edgeStyle=none;rounded=1;html=1;strokeColor=#23445D;endArrow=none;endFill=0;strokeWidth=4;entryX=0.975;entryY=0.438;entryDx=0;entryDy=0;entryPerimeter=0;exitX=0;exitY=0.438;exitDx=0;exitDy=0;exitPerimeter=0;" edge="1" parent="1" source="0-FlhMrsH-Pd4GE7u94M-13" target="0-FlhMrsH-Pd4GE7u94M-5">
          <mxGeometry relative="1" as="geometry">
            <mxPoint x="1400" y="580" as="sourcePoint" />
            <mxPoint x="1230" y="560" as="targetPoint" />
          </mxGeometry>
        </mxCell>
        <mxCell id="0-FlhMrsH-Pd4GE7u94M-55" style="edgeStyle=orthogonalEdgeStyle;rounded=1;html=1;strokeColor=#23445D;endArrow=none;endFill=0;strokeWidth=4;" edge="1" parent="1">
          <mxGeometry relative="1" as="geometry">
            <Array as="points">
              <mxPoint x="1450" y="800" />
              <mxPoint x="1290" y="800" />
              <mxPoint x="1290" y="580" />
            </Array>
            <mxPoint x="1450" y="800" as="sourcePoint" />
            <mxPoint x="1260" y="580" as="targetPoint" />
          </mxGeometry>
        </mxCell>
        <mxCell id="0-FlhMrsH-Pd4GE7u94M-57" value="&lt;font style=&quot;font-size: 18px;&quot;&gt;HQ R2 (STANDBY)&lt;/font&gt;" style="text;html=1;align=center;verticalAlign=middle;whiteSpace=wrap;rounded=0;" vertex="1" parent="1">
          <mxGeometry x="840" y="330" width="80" height="30" as="geometry" />
        </mxCell>
        <mxCell id="0-FlhMrsH-Pd4GE7u94M-58" value="&lt;font style=&quot;font-size: 18px;&quot;&gt;HQ R1 (HOT)&lt;/font&gt;" style="text;html=1;align=center;verticalAlign=middle;whiteSpace=wrap;rounded=0;" vertex="1" parent="1">
          <mxGeometry x="850" y="850" width="60" height="30" as="geometry" />
        </mxCell>
        <mxCell id="0-FlhMrsH-Pd4GE7u94M-59" value="&lt;font style=&quot;font-size: 18px;&quot;&gt;AP WiFi&lt;/font&gt;" style="text;html=1;align=center;verticalAlign=middle;whiteSpace=wrap;rounded=0;" vertex="1" parent="1">
          <mxGeometry x="1090" y="975" width="70" height="30" as="geometry" />
        </mxCell>
        <mxCell id="0-FlhMrsH-Pd4GE7u94M-60" value="&lt;font style=&quot;font-size: 18px;&quot;&gt;VLAN 50&lt;/font&gt;" style="text;html=1;align=center;verticalAlign=middle;whiteSpace=wrap;rounded=0;" vertex="1" parent="1">
          <mxGeometry x="1450" y="887.5" width="80" height="30" as="geometry" />
        </mxCell>
        <mxCell id="0-FlhMrsH-Pd4GE7u94M-61" value="&lt;font style=&quot;font-size: 18px;&quot;&gt;VLAN 30&lt;/font&gt;" style="text;html=1;align=center;verticalAlign=middle;whiteSpace=wrap;rounded=0;" vertex="1" parent="1">
          <mxGeometry x="1450" y="710" width="80" height="30" as="geometry" />
        </mxCell>
        <mxCell id="0-FlhMrsH-Pd4GE7u94M-62" value="&lt;font style=&quot;font-size: 18px;&quot;&gt;VLAN 20&lt;/font&gt;" style="text;html=1;align=center;verticalAlign=middle;whiteSpace=wrap;rounded=0;" vertex="1" parent="1">
          <mxGeometry x="1450" y="500" width="80" height="30" as="geometry" />
        </mxCell>
        <mxCell id="0-FlhMrsH-Pd4GE7u94M-63" value="&lt;font style=&quot;font-size: 18px;&quot;&gt;VLAN 10&lt;/font&gt;" style="text;html=1;align=center;verticalAlign=middle;whiteSpace=wrap;rounded=0;" vertex="1" parent="1">
          <mxGeometry x="1450" y="310" width="80" height="30" as="geometry" />
        </mxCell>
        <mxCell id="0-FlhMrsH-Pd4GE7u94M-64" value="&lt;font style=&quot;font-size: 18px;&quot;&gt;DHCP Server&lt;/font&gt;&lt;div&gt;&lt;font size=&quot;3&quot;&gt;(VLAN 99)&lt;/font&gt;&lt;/div&gt;" style="text;html=1;align=center;verticalAlign=middle;whiteSpace=wrap;rounded=0;" vertex="1" parent="1">
          <mxGeometry x="1059.15" y="310" width="121.7" height="30" as="geometry" />
        </mxCell>
        <mxCell id="0-FlhMrsH-Pd4GE7u94M-65" value="&lt;font style=&quot;font-size: 18px;&quot;&gt;SW1&amp;nbsp;&lt;/font&gt;" style="text;html=1;align=center;verticalAlign=middle;whiteSpace=wrap;rounded=0;" vertex="1" parent="1">
          <mxGeometry x="979.15" y="570" width="80" height="30" as="geometry" />
        </mxCell>
        <mxCell id="0-FlhMrsH-Pd4GE7u94M-66" value="&lt;font style=&quot;font-size: 18px;&quot;&gt;SW2&amp;nbsp;&lt;/font&gt;" style="text;html=1;align=center;verticalAlign=middle;whiteSpace=wrap;rounded=0;" vertex="1" parent="1">
          <mxGeometry x="345" y="510" width="60" height="30" as="geometry" />
        </mxCell>
        <mxCell id="0-FlhMrsH-Pd4GE7u94M-67" value="&lt;font style=&quot;font-size: 18px;&quot;&gt;AP WiFi (Guest)&lt;/font&gt;" style="text;html=1;align=center;verticalAlign=middle;whiteSpace=wrap;rounded=0;" vertex="1" parent="1">
          <mxGeometry x="347" y="840" width="68" height="30" as="geometry" />
        </mxCell>
        <mxCell id="0-FlhMrsH-Pd4GE7u94M-68" value="&lt;font style=&quot;font-size: 18px;&quot;&gt;VLAN 140&lt;/font&gt;" style="text;html=1;align=center;verticalAlign=middle;whiteSpace=wrap;rounded=0;" vertex="1" parent="1">
          <mxGeometry x="65" y="730" width="90" height="30" as="geometry" />
        </mxCell>
        <mxCell id="0-FlhMrsH-Pd4GE7u94M-69" value="&lt;font style=&quot;font-size: 18px;&quot;&gt;VLAN 120&lt;/font&gt;" style="text;html=1;align=center;verticalAlign=middle;whiteSpace=wrap;rounded=0;" vertex="1" parent="1">
          <mxGeometry x="65" y="490" width="90" height="30" as="geometry" />
        </mxCell>
        <mxCell id="0-FlhMrsH-Pd4GE7u94M-70" value="&lt;font style=&quot;font-size: 18px;&quot;&gt;VLAN 110&lt;/font&gt;" style="text;html=1;align=center;verticalAlign=middle;whiteSpace=wrap;rounded=0;" vertex="1" parent="1">
          <mxGeometry x="65" y="290" width="90" height="30" as="geometry" />
        </mxCell>
        <mxCell id="0-FlhMrsH-Pd4GE7u94M-71" value="&lt;span style=&quot;font-size: 18px;&quot;&gt;R3 Branch&lt;/span&gt;" style="text;html=1;align=center;verticalAlign=middle;whiteSpace=wrap;rounded=0;" vertex="1" parent="1">
          <mxGeometry x="565" y="505" width="70" height="30" as="geometry" />
        </mxCell>
        <mxCell id="0-FlhMrsH-Pd4GE7u94M-74" value="&lt;font style=&quot;font-size: 18px;&quot;&gt;Trunk&lt;/font&gt;" style="text;html=1;align=center;verticalAlign=middle;whiteSpace=wrap;rounded=0;" vertex="1" parent="1">
          <mxGeometry x="455" y="575" width="60" height="30" as="geometry" />
        </mxCell>
        <mxCell id="0-FlhMrsH-Pd4GE7u94M-75" value="&lt;font style=&quot;font-size: 18px;&quot;&gt;Trunk&lt;/font&gt;" style="text;html=1;align=center;verticalAlign=middle;whiteSpace=wrap;rounded=0;rotation=45;" vertex="1" parent="1">
          <mxGeometry x="979.15" y="440" width="60" height="30" as="geometry" />
        </mxCell>
        <mxCell id="0-FlhMrsH-Pd4GE7u94M-76" value="&lt;font style=&quot;font-size: 18px;&quot;&gt;Access&lt;/font&gt;" style="text;html=1;align=center;verticalAlign=middle;whiteSpace=wrap;rounded=0;" vertex="1" parent="1">
          <mxGeometry x="235" y="575" width="60" height="30" as="geometry" />
        </mxCell>
        <mxCell id="0-FlhMrsH-Pd4GE7u94M-77" value="&lt;font style=&quot;font-size: 18px;&quot;&gt;Access&lt;/font&gt;" style="text;html=1;align=center;verticalAlign=middle;whiteSpace=wrap;rounded=0;" vertex="1" parent="1">
          <mxGeometry x="1180.85" y="580" width="60" height="30" as="geometry" />
        </mxCell>
        <mxCell id="0-FlhMrsH-Pd4GE7u94M-78" value="&lt;font style=&quot;font-size: 18px;&quot;&gt;Trunk&lt;/font&gt;" style="text;html=1;align=center;verticalAlign=middle;whiteSpace=wrap;rounded=0;rotation=-45;" vertex="1" parent="1">
          <mxGeometry x="989.1498051533947" y="719.9998051533945" width="60" height="30" as="geometry" />
        </mxCell>
        <mxCell id="0-FlhMrsH-Pd4GE7u94M-79" value="&lt;font style=&quot;font-size: 18px;&quot;&gt;10.0.0.0 /30&lt;/font&gt;" style="text;html=1;align=center;verticalAlign=middle;whiteSpace=wrap;rounded=0;rotation=-40;" vertex="1" parent="1">
          <mxGeometry x="720" y="485" width="100" height="30" as="geometry" />
        </mxCell>
        <mxCell id="0-FlhMrsH-Pd4GE7u94M-80" value="&lt;font style=&quot;font-size: 18px;&quot;&gt;10.0.0.4 /30&lt;/font&gt;" style="text;html=1;align=center;verticalAlign=middle;whiteSpace=wrap;rounded=0;rotation=45;" vertex="1" parent="1">
          <mxGeometry x="710.004036301247" y="670.0000471311116" width="100" height="30" as="geometry" />
        </mxCell>
        <mxCell id="0-FlhMrsH-Pd4GE7u94M-81" value="&lt;font style=&quot;font-size: 24px;&quot;&gt;WAN&lt;/font&gt;" style="text;html=1;align=center;verticalAlign=middle;whiteSpace=wrap;rounded=0;rotation=45;" vertex="1" parent="1">
          <mxGeometry x="650" y="700" width="60" height="30" as="geometry" />
        </mxCell>
        <mxCell id="0-FlhMrsH-Pd4GE7u94M-82" value="&lt;font style=&quot;font-size: 24px;&quot;&gt;WAN&lt;/font&gt;" style="text;html=1;align=center;verticalAlign=middle;whiteSpace=wrap;rounded=0;rotation=-45;" vertex="1" parent="1">
          <mxGeometry x="669.9998051533946" y="449.9998051533947" width="60" height="30" as="geometry" />
        </mxCell>
        <mxCell id="0-FlhMrsH-Pd4GE7u94M-91" value="&lt;font style=&quot;font-size: 18px;&quot;&gt;Access&lt;/font&gt;" style="text;html=1;align=center;verticalAlign=middle;whiteSpace=wrap;rounded=0;rotation=90;" vertex="1" parent="1">
          <mxGeometry x="365" y="670" width="60" height="30" as="geometry" />
        </mxCell>
        <mxCell id="0-FlhMrsH-Pd4GE7u94M-92" value="&lt;font style=&quot;font-size: 18px;&quot;&gt;Access&lt;/font&gt;" style="text;html=1;align=center;verticalAlign=middle;whiteSpace=wrap;rounded=0;rotation=90;" vertex="1" parent="1">
          <mxGeometry x="1106.7" y="759.6" width="60" height="30" as="geometry" />
        </mxCell>
        <mxCell id="0-FlhMrsH-Pd4GE7u94M-94" value="&lt;font style=&quot;font-size: 36px;&quot;&gt;HEADQUARTER&lt;/font&gt;" style="text;html=1;align=center;verticalAlign=middle;whiteSpace=wrap;rounded=0;" vertex="1" parent="1">
          <mxGeometry x="1202" y="240" width="60" height="30" as="geometry" />
        </mxCell>
        <mxCell id="0-FlhMrsH-Pd4GE7u94M-96" value="Text" style="text;html=1;align=center;verticalAlign=middle;whiteSpace=wrap;rounded=0;" vertex="1" parent="1">
          <mxGeometry x="680" y="620" width="60" height="30" as="geometry" />
        </mxCell>
        <mxCell id="0-FlhMrsH-Pd4GE7u94M-97" value="&lt;font style=&quot;font-size: 36px;&quot;&gt;BRANCH&lt;/font&gt;" style="text;html=1;align=center;verticalAlign=middle;whiteSpace=wrap;rounded=0;" vertex="1" parent="1">
          <mxGeometry x="280" y="255" width="60" height="30" as="geometry" />
        </mxCell>
      </root>
    </mxGraphModel>
  </diagram>
</mxfile>
